<svg width="30" height="31" viewBox="0 0 30 31" fill="none" xmlns="http://www.w3.org/2000/svg">
<path d="M13.75 5.9375H5C4.33696 5.9375 3.70107 6.20089 3.23223 6.66973C2.76339 7.13857 2.5 7.77446 2.5 8.4375V25.9375C2.5 26.6005 2.76339 27.2364 3.23223 27.7053C3.70107 28.1741 4.33696 28.4375 5 28.4375H22.5C23.163 28.4375 23.7989 28.1741 24.2678 27.7053C24.7366 27.2364 25 26.6005 25 25.9375V17.1875" stroke="#2C2C2C" stroke-width="2" stroke-linecap="round" stroke-linejoin="round"/>
<path d="M23.125 4.06254C23.6223 3.56526 24.2967 3.28589 25 3.28589C25.7033 3.28589 26.3777 3.56526 26.875 4.06254C27.3723 4.55982 27.6517 5.23428 27.6517 5.93754C27.6517 6.6408 27.3723 7.31526 26.875 7.81254L15 19.6875L10 20.9375L11.25 15.9375L23.125 4.06254Z" stroke="#2C2C2C" stroke-width="2" stroke-linecap="round" stroke-linejoin="round"/>
</svg>
