<svg width="30" height="30" viewBox="0 0 30 30" fill="none" xmlns="http://www.w3.org/2000/svg">
<path d="M26.25 7.5V13.75C26.25 15.2274 25.959 16.6903 25.3936 18.0552C24.8283 19.4201 23.9996 20.6603 22.955 21.705C21.9103 22.7496 20.6701 23.5783 19.3052 24.1436C17.9403 24.709 16.4774 25 15 25C13.5226 25 12.0597 24.709 10.6948 24.1436C9.3299 23.5783 8.08971 22.7496 7.04505 21.705C6.00039 20.6603 5.17172 19.4201 4.60636 18.0552C4.04099 16.6903 3.75 15.2274 3.75 13.75V7.5C3.75 6.83696 4.01339 6.20107 4.48223 5.73223C4.95107 5.26339 5.58696 5 6.25 5H23.75C24.413 5 25.0489 5.26339 25.5178 5.73223C25.9866 6.20107 26.25 6.83696 26.25 7.5Z" stroke="black" stroke-opacity="0.65" stroke-width="1.5" stroke-linecap="round" stroke-linejoin="round"/>
<path d="M10 12.5L15 17.5L20 12.5" stroke="black" stroke-opacity="0.65" stroke-width="1.5" stroke-linecap="round" stroke-linejoin="round"/>
</svg>
