<svg width="50" height="50" viewBox="0 0 50 50" fill="none" xmlns="http://www.w3.org/2000/svg">
<path d="M42.3825 23.8626C42.46 24.4601 42.5 25.0951 42.5 25.7701C42.5 29.6076 41.3375 32.1876 40.225 33.7901C39.7855 34.4263 39.2738 35.0093 38.7 35.5276C38.5126 35.6955 38.3156 35.8524 38.11 35.9976L38.0875 36.0126C37.9077 36.125 37.7595 36.2812 37.6567 36.4666C37.5539 36.6521 37.5 36.8606 37.5 37.0726V41.2501C37.5 41.5816 37.3683 41.8996 37.1339 42.134C36.8995 42.3684 36.5815 42.5001 36.25 42.5001H32.79C32.7131 42.5001 32.6393 42.4696 32.5849 42.4152C32.5306 42.3608 32.5 42.287 32.5 42.2101C32.5 40.6676 31.25 39.4176 29.71 39.4176H25.29C23.75 39.4176 22.5 40.6676 22.5 42.2101C22.5 42.287 22.4694 42.3608 22.4151 42.4152C22.3607 42.4696 22.2869 42.5001 22.21 42.5001H18.75C18.4185 42.5001 18.1005 42.3684 17.8661 42.134C17.6317 41.8996 17.5 41.5816 17.5 41.2501V39.1251C17.4993 38.8633 17.4164 38.6083 17.263 38.3961C17.1096 38.184 16.8934 38.0253 16.645 37.9426L16.545 37.8951C16.3465 37.7975 16.1544 37.6873 15.97 37.5651C15.42 37.2101 14.5525 36.5501 13.39 35.3726C12.3414 34.2932 11.497 33.0329 10.8975 31.6526C10.4375 30.5976 9.475 29.6701 8.1875 29.4526C7.99585 29.4202 7.82179 29.3212 7.69601 29.173C7.57023 29.0248 7.50082 28.837 7.5 28.6426V24.8751C7.5 24.7036 7.56078 24.5377 7.67155 24.4068C7.78231 24.2759 7.93589 24.1885 8.105 24.1601C9.48 23.9276 10.455 22.8751 10.835 21.7151C11.16 20.7201 11.745 19.4151 12.715 18.4326C13.533 17.6169 14.4482 16.9049 15.44 16.3126C15.8374 16.0736 16.2462 15.8542 16.665 15.6551L16.73 15.6251L16.7425 15.6201C16.9679 15.5235 17.1599 15.3627 17.2946 15.1578C17.4293 14.9529 17.5007 14.7128 17.5 14.4676V9.22511C18.1325 9.77511 18.87 10.3701 19.665 10.9001C20.75 11.6301 22.0425 12.3151 23.37 12.5626C23.6769 11.7288 24.0796 10.9335 24.57 10.1926C24.4175 10.1764 24.265 10.1606 24.1125 10.1451C23.225 10.0551 22.1575 9.56261 21.055 8.82511C20.0624 8.1425 19.1298 7.37638 18.2675 6.53511C17.9977 6.27768 17.659 6.10404 17.2924 6.03526C16.9259 5.96648 16.5473 6.00551 16.2025 6.14761C15.8487 6.28652 15.5448 6.52864 15.3303 6.84251C15.1159 7.15637 15.0008 7.52748 15 7.90761V13.6926C13.5062 14.4823 12.1366 15.4872 10.935 16.6751C9.5775 18.0501 8.84 19.7751 8.46 20.9376C8.31 21.3826 7.985 21.6451 7.69 21.6951C6.93847 21.8215 6.256 22.21 5.76359 22.7917C5.27119 23.3733 5.00067 24.1105 5 24.8726V28.6401C4.99961 29.426 5.27761 30.1866 5.78469 30.7871C6.29176 31.3875 6.99512 31.7889 7.77 31.9201C8.0825 31.9701 8.42 32.2251 8.605 32.6526C9.3275 34.3139 10.3457 35.8302 11.61 37.1276C12.8825 38.4176 13.8875 39.1951 14.6075 39.6626C14.75 39.7551 14.8825 39.8351 15 39.9051V41.2501C15 41.7426 15.097 42.2302 15.2855 42.6852C15.4739 43.1401 15.7501 43.5535 16.0983 43.9018C16.4466 44.25 16.86 44.5262 17.3149 44.7147C17.7699 44.9031 18.2575 45.0001 18.75 45.0001H22.21C23.75 45.0001 25 43.7501 25 42.2101C25 42.0476 25.13 41.9176 25.29 41.9176H29.71C29.87 41.9176 30 42.0476 30 42.2101C30 43.7501 31.25 45.0001 32.79 45.0001H36.25C37.2446 45.0001 38.1984 44.605 38.9017 43.9018C39.6049 43.1985 40 42.2447 40 41.2501V37.7026C40.868 36.9818 41.6334 36.1457 42.275 35.2176C43.6625 33.2251 45 30.1526 45 25.7701C45 23.9551 44.7475 22.3301 44.2675 20.8776C43.7998 21.9654 43.1637 22.9728 42.3825 23.8626V23.8626ZM42.0075 13.0801C42.7576 14.8932 42.8765 16.9059 42.3452 18.7947C41.8138 20.6836 40.6629 22.339 39.0775 23.4951C38.0025 24.2751 36.585 24.2201 35.36 23.7126L27.76 20.5651C26.535 20.0576 25.4925 19.0951 25.285 17.7851C24.9615 15.6739 25.4214 13.5173 26.5779 11.7217C27.7345 9.92605 29.5079 8.61547 31.5639 8.03692C33.6199 7.45836 35.8165 7.65179 37.7397 8.58074C39.663 9.50969 41.18 11.11 42.005 13.0801H42.0075ZM37.6075 21.4751C38.5053 20.8215 39.2127 19.9405 39.6569 18.9227C40.1012 17.9049 40.2662 16.7872 40.1351 15.6844C40.004 14.5817 39.5814 13.5338 38.9109 12.6486C38.2404 11.7634 37.3461 11.0728 36.3201 10.6479C35.2941 10.223 34.1734 10.0792 33.0733 10.2312C31.9733 10.3832 30.9336 10.8256 30.0613 11.5128C29.1889 12.2 28.5154 13.1072 28.1101 14.141C27.7047 15.1749 27.5822 16.2981 27.755 17.3951C27.7842 17.5369 27.8567 17.6662 27.9625 17.7651C28.1225 17.9351 28.3775 18.1151 28.7175 18.2551L36.3175 21.4051C36.5954 21.5251 36.8948 21.5872 37.1975 21.5876C37.3425 21.5934 37.4857 21.5541 37.6075 21.4751V21.4751ZM16.875 23.7501C17.3723 23.7501 17.8492 23.5526 18.2008 23.2009C18.5525 22.8493 18.75 22.3724 18.75 21.8751C18.75 21.3778 18.5525 20.9009 18.2008 20.5493C17.8492 20.1977 17.3723 20.0001 16.875 20.0001C16.3777 20.0001 15.9008 20.1977 15.5492 20.5493C15.1975 20.9009 15 21.3778 15 21.8751C15 22.3724 15.1975 22.8493 15.5492 23.2009C15.9008 23.5526 16.3777 23.7501 16.875 23.7501Z" fill="#FFD262"/>
</svg>
