<svg width="60" height="61" viewBox="0 0 60 61" fill="none" xmlns="http://www.w3.org/2000/svg">
<path d="M50.859 29.1349C50.952 29.8519 51 30.6139 51 31.4239C51 36.0289 49.605 39.1249 48.27 41.0479C47.7427 41.8113 47.1286 42.511 46.44 43.1329C46.2151 43.3344 45.9787 43.5227 45.732 43.6969L45.705 43.7149C45.4893 43.8497 45.3114 44.0372 45.188 44.2597C45.0647 44.4822 45 44.7325 45 44.9869V49.9999C45 50.3977 44.842 50.7792 44.5607 51.0605C44.2794 51.3418 43.8978 51.4999 43.5 51.4999H39.348C39.2557 51.4999 39.1672 51.4632 39.1019 51.398C39.0367 51.3327 39 51.2442 39 51.1519C39 49.3009 37.5 47.8009 35.652 47.8009H30.348C28.5 47.8009 27 49.3009 27 51.1519C27 51.2442 26.9633 51.3327 26.8981 51.398C26.8328 51.4632 26.7443 51.4999 26.652 51.4999H22.5C22.1022 51.4999 21.7206 51.3418 21.4393 51.0605C21.158 50.7792 21 50.3977 21 49.9999V47.4499C20.9991 47.1357 20.8996 46.8297 20.7155 46.5751C20.5315 46.3205 20.2721 46.1302 19.974 46.0309L19.854 45.9739C19.6158 45.8568 19.3853 45.7245 19.164 45.5779C18.504 45.1519 17.463 44.3599 16.068 42.9469C14.8097 41.6516 13.7964 40.1392 13.077 38.4829C12.525 37.2169 11.37 36.1039 9.825 35.8429C9.59502 35.804 9.38615 35.6852 9.23521 35.5074C9.08428 35.3295 9.00098 35.1041 9 34.8709V30.3499C9 30.1441 9.07294 29.945 9.20585 29.7879C9.33877 29.6308 9.52307 29.5259 9.726 29.4919C11.376 29.2129 12.546 27.9499 13.002 26.5579C13.392 25.3639 14.094 23.7979 15.258 22.6189C16.2396 21.64 17.3378 20.7856 18.528 20.0749C19.0049 19.7881 19.4954 19.5248 19.998 19.2859L20.076 19.2499L20.091 19.2439C20.3615 19.1279 20.5919 18.935 20.7535 18.6891C20.9151 18.4432 21.0008 18.1552 21 17.8609V11.5699C21.759 12.2299 22.644 12.9439 23.598 13.5799C24.9 14.4559 26.451 15.2779 28.044 15.5749C28.4123 14.5743 28.8955 13.6199 29.484 12.7309C29.301 12.7115 29.118 12.6925 28.935 12.6739C27.87 12.5659 26.589 11.9749 25.266 11.0899C24.0748 10.2708 22.9558 9.35141 21.921 8.34189C21.5972 8.03297 21.1908 7.82461 20.7509 7.74207C20.3111 7.65954 19.8568 7.70637 19.443 7.87689C19.0184 8.04358 18.6537 8.33412 18.3964 8.71076C18.1391 9.0874 18.0009 9.53273 18 9.98889V16.9309C16.2075 17.8785 14.5639 19.0844 13.122 20.5099C11.493 22.1599 10.608 24.2299 10.152 25.6249C9.972 26.1589 9.582 26.4739 9.228 26.5339C8.32617 26.6856 7.5072 27.1518 6.91631 27.8497C6.32542 28.5477 6.0008 29.4324 6 30.3469V34.8679C5.99953 35.811 6.33313 36.7237 6.94162 37.4443C7.55011 38.1648 8.39415 38.6465 9.324 38.8039C9.699 38.8639 10.104 39.1699 10.326 39.6829C11.193 41.6764 12.4148 43.4959 13.932 45.0529C15.459 46.6009 16.665 47.5339 17.529 48.0949C17.7 48.2059 17.859 48.3019 18 48.3859V49.9999C18 50.5908 18.1164 51.176 18.3425 51.722C18.5687 52.2679 18.9002 52.764 19.318 53.1819C19.7359 53.5997 20.232 53.9312 20.7779 54.1573C21.3239 54.3835 21.9091 54.4999 22.5 54.4999H26.652C28.5 54.4999 30 52.9999 30 51.1519C30 50.9569 30.156 50.8009 30.348 50.8009H35.652C35.844 50.8009 36 50.9569 36 51.1519C36 52.9999 37.5 54.4999 39.348 54.4999H43.5C44.6935 54.4999 45.8381 54.0258 46.682 53.1819C47.5259 52.3379 48 51.1934 48 49.9999V45.7429C49.0416 44.8779 49.9601 43.8746 50.73 42.7609C52.395 40.3699 54 36.6829 54 31.4239C54 29.2459 53.697 27.2959 53.121 25.5529C52.5598 26.8583 51.7964 28.0671 50.859 29.1349ZM50.409 16.1959C51.3091 18.3716 51.4518 20.7868 50.8142 23.0534C50.1765 25.3201 48.7955 27.3066 46.893 28.6939C45.603 29.6299 43.902 29.5639 42.432 28.9549L33.312 25.1779C31.842 24.5689 30.591 23.4139 30.342 21.8419C29.9538 19.3084 30.5056 16.7205 31.8935 14.5658C33.2814 12.411 35.4094 10.8383 37.8766 10.1441C40.3438 9.44979 42.9798 9.6819 45.2877 10.7966C47.5956 11.9114 49.416 13.8318 50.406 16.1959H50.409ZM45.129 26.2699C46.2063 25.4855 47.0552 24.4283 47.5883 23.207C48.1214 21.9857 48.3195 20.6444 48.1621 19.3211C48.0048 17.9978 47.4977 16.7403 46.6931 15.6781C45.8885 14.6158 44.8153 13.7871 43.5841 13.2773C42.3529 12.7674 41.0081 12.5948 39.688 12.7772C38.368 12.9596 37.1203 13.4904 36.0735 14.3151C35.0267 15.1397 34.2185 16.2284 33.7321 17.469C33.2457 18.7097 33.0986 20.0575 33.306 21.3739C33.3411 21.5441 33.4281 21.6992 33.555 21.8179C33.747 22.0219 34.053 22.2379 34.461 22.4059L43.581 26.1859C43.9145 26.3299 44.2738 26.4044 44.637 26.4049C44.811 26.4118 44.9829 26.3646 45.129 26.2699ZM20.25 28.9999C20.8467 28.9999 21.419 28.7628 21.841 28.3409C22.2629 27.9189 22.5 27.3466 22.5 26.7499C22.5 26.1531 22.2629 25.5809 21.841 25.1589C21.419 24.7369 20.8467 24.4999 20.25 24.4999C19.6533 24.4999 19.081 24.7369 18.659 25.1589C18.2371 25.5809 18 26.1531 18 26.7499C18 27.3466 18.2371 27.9189 18.659 28.3409C19.081 28.7628 19.6533 28.9999 20.25 28.9999Z" fill="#FFD262"/>
</svg>
